<?xml version="1.0" standalone="no"?>
<svg xmlns="http://www.w3.org/2000/svg" version="1.2" width="4.4em" viewBox="0.0000 -1.8555 6.2578 3.3203">
<style type="text/css">
<![CDATA[
* { fill:#336 }
@media(prefers-color-scheme:dark) {
* { fill:#f0f0ff }
}
]]>
</style>
<g transform="translate(0.0000, -0.0000)">
<path d="M0.0000 -0.2305L0.0000 -0.4688C0.0000 -0.5000 0.0195 -0.5312 0.0508 -0.5430L0.2305 -0.6094L0.2305 -1.2188C0.2305 -1.2578 0.2617 -1.2930 0.3008 -1.2930C0.3398 -1.2930 0.3750 -1.2578 0.3750 -1.2188L0.3750 -0.6602L0.6992 -0.7773L0.6992 -1.3906C0.6992 -1.4297 0.7344 -1.4648 0.7734 -1.4648C0.8125 -1.4648 0.8438 -1.4297 0.8438 -1.3906L0.8438 -0.8242L0.9258 -0.8555C0.9570 -0.8672 0.9766 -0.8750 0.9961 -0.8750C1.0391 -0.8750 1.0742 -0.8398 1.0742 -0.7969L1.0742 -0.5586C1.0742 -0.5273 1.0547 -0.4961 1.0234 -0.4844L0.8438 -0.4180L0.8438 0.2031L0.9258 0.1719C0.9570 0.1602 0.9766 0.1523 0.9961 0.1523C1.0391 0.1523 1.0742 0.1875 1.0742 0.2305L1.0742 0.4688C1.0742 0.5000 1.0547 0.5312 1.0234 0.5430L0.8438 0.6094L0.8438 1.2188C0.8438 1.2578 0.8125 1.2930 0.7734 1.2930C0.7344 1.2930 0.6992 1.2578 0.6992 1.2188L0.6992 0.6602L0.3750 0.7773L0.3750 1.3906C0.3750 1.4297 0.3398 1.4648 0.3008 1.4648C0.2617 1.4648 0.2305 1.4297 0.2305 1.3906L0.2305 0.8242L0.1484 0.8555C0.1172 0.8672 0.0977 0.8750 0.0781 0.8750C0.0352 0.8750 0.0000 0.8398 0.0000 0.7969L0.0000 0.5586C0.0000 0.5273 0.0195 0.4961 0.0508 0.4844L0.2305 0.4180L0.2305 -0.2031L0.1484 -0.1719C0.1172 -0.1602 0.0977 -0.1523 0.0781 -0.1523C0.0352 -0.1523 0.0000 -0.1875 0.0000 -0.2305zM0.3750 -0.2539L0.3750 0.3711L0.6992 0.2539L0.6992 -0.3711L0.3750 -0.2539z"/>
</g>
<g transform="translate(1.0742, -0.0000)">
<path d="M0.1055 -0.7930C0.1055 -0.7109 0.1680 -0.6758 0.2461 -0.6758C0.3672 -0.6758 0.4609 -0.7266 0.5547 -0.7734L0.5859 -0.8984C0.5156 -0.9492 0.4492 -0.9922 0.3516 -0.9922C0.2305 -0.9922 0.1055 -0.9258 0.1055 -0.7930zM0.8438 -0.6992C0.8047 -0.5547 0.7578 -0.4062 0.7578 -0.3086C0.7578 -0.2422 0.7734 -0.1953 0.8125 -0.1953C0.8945 -0.1953 0.9414 -0.3281 0.9414 -0.4336C0.9414 -0.5508 0.9141 -0.6094 0.8438 -0.6992zM0.6562 -0.0000C0.5039 -0.0000 0.4336 -0.1094 0.4336 -0.2930C0.4336 -0.3359 0.4570 -0.4258 0.4688 -0.4688L0.5195 -0.6602C0.4336 -0.6172 0.3398 -0.5781 0.2266 -0.5781C0.0898 -0.5781 0.0000 -0.6484 0.0000 -0.7773C0.0000 -0.9766 0.1797 -1.0898 0.3672 -1.0898C0.4648 -1.0898 0.5391 -1.0430 0.6133 -0.9961L0.8047 -1.6914C0.8359 -1.8008 1.0195 -1.8555 1.0977 -1.8555C1.1289 -1.8555 1.1484 -1.8516 1.1484 -1.8281C1.1484 -1.8047 1.1406 -1.7734 1.1367 -1.7656L0.9062 -0.9258C1.0117 -0.9844 1.2070 -1.0898 1.3438 -1.0898C1.4648 -1.0898 1.5547 -1.0469 1.5977 -0.9844C1.6484 -1.0625 1.7344 -1.0898 1.8164 -1.0898C2.0234 -1.0898 2.1406 -0.9844 2.1406 -0.8125C2.1406 -0.6289 2.0234 -0.5508 1.9219 -0.5508C1.8203 -0.5508 1.7422 -0.6250 1.7422 -0.7344C1.7422 -0.8516 1.8359 -0.9062 1.9219 -0.9062C1.9219 -0.9570 1.8789 -1.0039 1.7891 -1.0039C1.7109 -1.0039 1.6562 -0.9414 1.6328 -0.8594L1.4180 -0.0742C1.4062 -0.0273 1.3984 -0.0000 1.3633 -0.0000L1.1172 -0.0000C1.0977 -0.0000 1.0938 -0.0078 1.0938 -0.0234C1.0938 -0.0352 1.1016 -0.0625 1.1055 -0.0742L1.3086 -0.8125C1.3164 -0.8398 1.3242 -0.8750 1.3242 -0.8945C1.3242 -0.9297 1.3008 -0.9531 1.2461 -0.9531C1.1758 -0.9531 1.0000 -0.8750 0.8750 -0.8125C0.9727 -0.6992 1.0430 -0.6133 1.0430 -0.4492C1.0430 -0.2109 0.9062 -0.0000 0.6562 -0.0000z"/>
</g>
<g transform="translate(3.2148, -0.0000)">
<path d="M0.0000 -0.8203C0.0000 -0.8359 0.0078 -0.8516 0.0156 -0.8594L0.1094 -0.9531C0.1523 -0.9961 0.2773 -1.0898 0.5078 -1.0898C0.9258 -1.0898 0.9219 -0.8008 1.3594 -0.8008C1.4844 -0.8008 1.5312 -0.8320 1.5586 -0.8594C1.5664 -0.8672 1.5820 -0.8750 1.5977 -0.8750C1.6289 -0.8750 1.6523 -0.8516 1.6523 -0.8203C1.6523 -0.8047 1.6445 -0.7891 1.6367 -0.7812L1.5430 -0.6875C1.5000 -0.6445 1.3750 -0.5508 1.1445 -0.5508C0.7266 -0.5508 0.7305 -0.8398 0.2930 -0.8398C0.1680 -0.8398 0.1211 -0.8086 0.0938 -0.7812C0.0859 -0.7734 0.0703 -0.7656 0.0547 -0.7656C0.0234 -0.7656 0.0000 -0.7891 0.0000 -0.8203z"/>
</g>
<g transform="translate(4.8672, -0.0000)">
<path d="M0.0000 -0.8203C0.0000 -0.8359 0.0078 -0.8516 0.0156 -0.8594L0.1094 -0.9531C0.1484 -0.9922 0.2578 -1.0898 0.4688 -1.0898C0.7891 -1.0898 0.8086 -0.8008 1.1367 -0.8008C1.2305 -0.8008 1.2734 -0.8359 1.2969 -0.8594C1.3047 -0.8672 1.3203 -0.8750 1.3359 -0.8750C1.3672 -0.8750 1.3906 -0.8516 1.3906 -0.8203C1.3906 -0.8047 1.3828 -0.7891 1.3750 -0.7812L1.2812 -0.6875C1.2422 -0.6484 1.1328 -0.5508 0.9219 -0.5508C0.6016 -0.5508 0.5820 -0.8398 0.2539 -0.8398C0.1602 -0.8398 0.1172 -0.8047 0.0938 -0.7812C0.0859 -0.7734 0.0703 -0.7656 0.0547 -0.7656C0.0234 -0.7656 0.0000 -0.7891 0.0000 -0.8203z"/>
</g>
</svg>
